Jump_normalized_pl06_filtered_grf
version=1
nRows=27
nColumns=37
inDegrees=yes
endheader
time		1_ground_force_vx		1_ground_force_vy		1_ground_force_vz		1_ground_force_px		1_ground_force_py		1_ground_force_pz		1_ground_torque_x		1_ground_torque_y		1_ground_torque_z		2_ground_force_vx		2_ground_force_vy		2_ground_force_vz		2_ground_force_px		2_ground_force_py		2_ground_force_pz		2_ground_torque_x		2_ground_torque_y		2_ground_torque_z		3_ground_force_vx		3_ground_force_vy		3_ground_force_vz		3_ground_force_px		3_ground_force_py		3_ground_force_pz		3_ground_torque_x		3_ground_torque_y		3_ground_torque_z		4_ground_force_vx		4_ground_force_vy		4_ground_force_vz		4_ground_force_px		4_ground_force_py		4_ground_force_pz		4_ground_torque_x		4_ground_torque_y		4_ground_torque_z		
0.044500		0.000000		-0.000000		-0.000000		0.146963		0.000000		0.232437		-0.000000		-0.000000		0.000000		-0.000000		-0.000000		-0.000000		-0.138296		0.000000		0.256471		-0.000000		0.000000		-0.000000		1.994476		289.620600		164.565556		0.375432		1.309623		1.913826		-0.083225		-12.085242		-6.866965		-18.309409		360.716420		223.870922		-0.265974		1.309081		1.925088		-0.948359		18.683771		11.595683		
0.047732		0.000000		-0.000000		-0.000000		0.146963		0.000000		0.232437		-0.000000		-0.000000		0.000000		0.000000		-0.000000		-0.000000		-0.138296		0.000000		0.256471		-0.000000		0.000000		-0.000000		1.584557		288.315543		165.889721		0.375421		1.309590		1.913776		-0.066145		-12.035387		-6.924868		-18.260965		361.137588		225.996232		-0.265980		1.309077		1.925123		-0.944182		18.672593		11.685118		
0.050965		0.000000		-0.000000		-0.000000		0.146963		0.000000		0.232437		-0.000000		-0.000000		0.000000		0.000000		-0.000000		-0.000000		-0.138296		0.000000		0.256471		-0.000000		0.000000		-0.000000		1.199100		287.182949		167.244779		0.375407		1.309532		1.913725		-0.050057		-11.988525		-6.981676		-18.234034		361.474091		227.936991		-0.265982		1.309069		1.925153		-0.940901		18.652542		11.761851		
0.054197		-0.000000		0.000000		0.000000		0.146963		0.000000		0.232437		0.000000		0.000000		-0.000000		0.000000		0.000000		-0.000000		-0.138296		0.000000		0.256471		0.000000		-0.000000		0.000000		0.878126		286.220693		168.620441		0.375399		1.309451		1.913680		-0.036643		-11.943585		-7.036292		-18.243044		361.728409		229.689316		-0.265979		1.309059		1.925175		-0.939362		18.625943		11.827050		
0.057429		-0.000000		0.000000		0.000000		0.146963		0.000000		0.232437		0.000000		0.000000		-0.000000		0.000000		0.000000		0.000000		-0.138296		0.000000		0.256471		0.000000		-0.000000		0.000000		0.644080		285.398452		170.026275		0.375401		1.309355		1.913648		-0.026857		-11.900391		-7.089664		-18.294129		361.894837		231.277364		-0.265971		1.309048		1.925193		-0.940122		18.597502		11.885169		
0.060662		-0.000000		0.000000		0.000000		0.146963		0.000000		0.232437		0.000000		0.000000		-0.000000		0.000000		0.000000		0.000000		-0.138296		0.000000		0.256471		0.000000		-0.000000		0.000000		0.495755		284.673274		171.468149		0.375419		1.309259		1.913639		-0.020653		-11.859365		-7.143288		-18.387508		361.968276		232.742366		-0.265960		1.309040		1.925206		-0.943453		18.572398		11.941885		
0.063894		-0.000000		0.000000		0.000000		0.146963		0.000000		0.232437		0.000000		0.000000		-0.000000		-0.000000		0.000000		0.000000		-0.138296		0.000000		0.256471		0.000000		-0.000000		0.000000		0.391487		283.985332		172.962118		0.375448		1.309181		1.913658		-0.016295		-11.820041		-7.199031		-18.519539		361.959201		234.117747		-0.265951		1.309036		1.925222		-0.949340		18.554595		12.001241		
0.067126		-0.000000		0.000000		0.000000		0.146963		0.000000		0.232437		0.000000		0.000000		-0.000000		-0.000000		0.000000		0.000000		-0.138296		0.000000		0.256471		0.000000		-0.000000		0.000000		0.292940		283.298567		174.500704		0.375480		1.309139		1.913709		-0.012183		-11.781929		-7.257202		-18.679086		361.884032		235.422232		-0.265949		1.309037		1.925247		-0.957241		18.545334		12.064594		
0.070359		0.000000		-0.000000		-0.000000		0.146963		0.000000		0.232437		-0.000000		-0.000000		0.000000		-0.000000		-0.000000		0.000000		-0.138296		0.000000		0.256471		-0.000000		0.000000		-0.000000		0.174261		282.608354		176.063517		0.375504		1.309144		1.913795		-1.248005		12.086222		-45.568874		-18.846365		361.763686		236.658297		-0.265955		1.309043		1.925285		-0.966021		18.543154		12.130547		
0.073591		0.000000		-0.000000		-0.000000		0.146963		0.000000		0.232437		-0.000000		-0.000000		0.000000		-0.000000		-0.000000		-0.000000		-0.138296		0.000000		0.256471		-0.000000		0.000000		-0.000000		0.026054		281.924207		177.648377		0.375508		1.309198		1.913914		-1.237258		12.364573		-45.585725		-18.988483		361.620804		237.826047		-0.265973		1.309052		1.925335		-0.973791		18.545091		12.196493		
0.076823		0.000000		-0.000000		-0.000000		0.146963		0.000000		0.232437		-0.000000		-0.000000		0.000000		-0.000000		-0.000000		-0.000000		-0.138296		0.000000		0.256471		-0.000000		0.000000		-0.000000		-0.151196		281.253837		179.280239		0.375486		1.309285		1.914050		-1.226210		12.649960		-45.613772		-19.069493		361.476366		238.942110		-0.265998		1.309063		1.925393		-0.978509		18.548367		12.260790		
0.080056		0.000000		-0.000000		-0.000000		0.146963		0.000000		0.232437		-0.000000		-0.000000		0.000000		0.000000		-0.000000		-0.000000		-0.138296		0.000000		0.256471		-0.000000		0.000000		-0.000000		-0.354455		280.596108		180.997197		0.375440		1.309389		1.914194		-1.215719		12.945449		-45.652591		-19.071300		361.354915		240.039119		-0.266025		1.309072		1.925454		-0.979112		18.551793		12.323497		
0.083288		0.000000		-0.000000		-0.000000		0.146963		0.000000		0.232437		-0.000000		-0.000000		0.000000		0.000000		-0.000000		-0.000000		-0.138296		0.000000		0.256471		-0.000000		0.000000		-0.000000		-0.572263		279.930991		182.847380		0.375374		1.309495		1.914330		-1.207593		13.256462		-45.697292		-18.999684		361.288131		241.160344		-0.266051		1.309078		1.925512		-0.975817		18.555630		12.385910		
0.086520		-0.000000		0.000000		0.000000		0.146963		0.000000		0.232437		0.000000		0.000000		-0.000000		0.000000		0.000000		0.000000		-0.138296		0.000000		0.256471		0.000000		-0.000000		0.000000		-0.784655		279.243284		184.840323		0.375305		1.309595		1.914449		-1.203440		13.584157		-45.741032		-18.884084		361.320211		242.342682		-0.266073		1.309081		1.925565		-0.970069		18.560891		12.449058		
0.089753		-0.000000		0.000000		0.000000		0.146963		0.000000		0.232437		0.000000		0.000000		-0.000000		0.000000		0.000000		0.000000		-0.138296		0.000000		0.256471		0.000000		-0.000000		0.000000		-0.962963		278.519045		186.961128		0.375244		1.309682		1.914545		-1.205120		13.927052		-45.776939		-18.758477		361.513574		243.605412		-0.266089		1.309083		1.925615		-0.963517		18.568925		12.512644		
0.092985		-0.000000		0.000000		0.000000		0.146963		0.000000		0.232437		0.000000		0.000000		-0.000000		0.000000		0.000000		0.000000		-0.138296		0.000000		0.256471		0.000000		-0.000000		0.000000		-1.085040		277.749254		189.174529		0.375207		1.309752		1.914615		-1.213097		14.280784		-45.800815		-18.648338		361.934259		244.955332		-0.266097		1.309082		1.925661		-0.957378		18.581175		12.575648		
0.096217		-0.000000		0.000000		0.000000		0.146963		0.000000		0.232437		0.000000		0.000000		-0.000000		-0.000000		0.000000		0.000000		-0.138296		0.000000		0.256471		0.000000		-0.000000		0.000000		-1.163278		276.936148		191.426327		0.375196		1.309805		1.914658		-1.222067		14.638016		-45.812882		-18.564519		362.659022		246.388675		-0.266101		1.309080		1.925705		-0.952145		18.600210		12.636887		
0.099449		-0.000000		0.000000		0.000000		0.146963		0.000000		0.232437		0.000000		0.000000		-0.000000		-0.000000		0.000000		0.000000		-0.138296		0.000000		0.256471		0.000000		-0.000000		0.000000		-1.234913		276.078766		193.666150		0.375205		1.309838		1.914675		-1.224866		14.993496		-45.816743		-18.501573		363.746335		247.909219		-0.266100		1.309078		1.925748		-0.947558		18.629275		12.696675		
0.102682		0.000000		-0.000000		-0.000000		0.146963		0.000000		0.232437		-0.000000		-0.000000		0.000000		-0.000000		-0.000000		-0.000000		-0.138296		0.000000		0.256471		-0.000000		0.000000		-0.000000		-1.355403		275.164786		195.860035		0.375221		1.309848		1.914670		-1.212929		15.346655		-45.816989		-18.443126		365.234674		249.537106		-0.266098		1.309075		1.925789		-0.942875		18.672041		12.757187		
0.105914		0.000000		-0.000000		-0.000000		0.146963		0.000000		0.232437		-0.000000		-0.000000		0.000000		-0.000000		-0.000000		-0.000000		-0.138296		0.000000		0.256471		-0.000000		0.000000		-0.000000		-1.605916		274.168058		198.008797		0.375224		1.309834		1.914650		-1.172289		15.702921		-45.816932		-18.372591		367.124535		251.297296		-0.266095		1.309070		1.925826		-0.937403		18.731362		12.821645		
0.109146		0.000000		-0.000000		-0.000000		0.146963		0.000000		0.232437		-0.000000		-0.000000		0.000000		-0.000000		-0.000000		-0.000000		-0.138296		0.000000		0.256471		-0.000000		0.000000		-0.000000		-2.047445		273.081607		200.113803		0.375202		1.309796		1.914626		-1.090839		16.065502		-45.818940		-18.283345		369.384527		253.216743		-0.266094		1.309066		1.925858		-0.930950		18.808297		12.893273		
0.112379		0.000000		-0.000000		-0.000000		0.146963		0.000000		0.232437		-0.000000		-0.000000		0.000000		0.000000		-0.000000		-0.000000		-0.138296		0.000000		0.256471		-0.000000		0.000000		-0.000000		-2.738677		271.906996		202.197169		0.375148		1.309737		1.914610		-0.952570		16.437290		-45.822546		-18.175779		371.965694		255.298430		-0.266095		1.309059		1.925887		-0.923611		18.901623		12.973117		
0.115611		0.000000		-0.000000		-0.000000		0.146963		0.000000		0.232437		-0.000000		-0.000000		0.000000		0.000000		-0.000000		-0.000000		-0.138296		0.000000		0.256471		-0.000000		0.000000		-0.000000		-3.706683		270.659936		204.278356		0.375066		1.309656		1.914614		-0.746014		16.817516		-45.825118		-18.049464		374.823836		257.526366		-0.266099		1.309053		1.925912		-0.915346		19.008505		13.059978		
0.118843		-0.000000		0.000000		0.000000		0.146963		0.000000		0.232437		0.000000		0.000000		-0.000000		0.000000		0.000000		-0.000000		-0.138296		0.000000		0.256471		0.000000		-0.000000		0.000000		-4.812000		269.392839		206.332038		0.374974		1.309555		1.914637		-0.498182		17.195597		-45.824960		-17.890992		377.930369		259.883591		-0.266105		1.309045		1.925939		-0.905415		19.126043		13.152012		
0.122076		-0.000000		0.000000		0.000000		0.146963		0.000000		0.232437		0.000000		0.000000		-0.000000		0.000000		0.000000		0.000000		-0.138296		0.000000		0.256471		0.000000		-0.000000		0.000000		-5.899265		268.157562		208.334891		0.374893		1.309441		1.914675		-0.243811		17.560861		-45.821416		-17.674313		381.281414		262.366183		-0.266110		1.309037		1.925969		-0.892472		19.252968		13.248292		
0.125308		-0.000000		0.000000		0.000000		0.146963		0.000000		0.232437		0.000000		0.000000		-0.000000		0.000000		0.000000		0.000000		-0.138296		0.000000		0.256471		0.000000		-0.000000		0.000000		-6.833761		267.020216		210.256090		0.374836		1.309320		1.914718		-0.018444		17.901895		-45.818081		-17.367191		384.905566		264.992612		-0.266112		1.309028		1.926004		-0.874882		19.389831		13.349149		
0.128540		-0.000000		0.000000		0.000000		0.146963		0.000000		0.232437		0.000000		0.000000		-0.000000		-0.000000		0.000000		0.000000		-0.138296		0.000000		0.256471		0.000000		-0.000000		0.000000		-7.547410		266.047528		212.085179		0.374809		1.309199		1.914753		0.153470		18.212029		-45.822968		-16.952561		388.859634		267.800191		-0.266109		1.309020		1.926047		-0.851762		19.537799		13.455308		
